<svg width="200" height="200" viewBox="0 0 200 200" fill="none" xmlns="http://www.w3.org/2000/svg">
<path fill-rule="evenodd" clip-rule="evenodd" d="M129.78 0.00267793L128.83 0.080452L127.71 0.291565L126.63 0.647118L125.6 1.13599L124.64 1.72488C124.02 2.16931 123.45 2.68042 122.89 3.28041L122.2 4.16929L121.52 5.20261L121.02 6.22482L120.58 7.36925L120.21 8.85812L120.04 10.1137L119.95 12.7803C119.584 18.5324 117.22 23.9012 113.357 27.7524C109.495 31.6036 104.436 33.6357 99.2494 33.4194C94.0631 33.203 89.1558 30.7551 85.5638 26.5929C81.9719 22.4307 79.9768 16.88 80 11.1136C80.0004 9.35309 79.6243 7.61763 78.9026 6.05029C78.1808 4.48296 77.1343 3.1286 75.8491 2.09885C74.5638 1.06908 73.0768 0.393402 71.5105 0.12748C69.9441 -0.138443 68.3433 0.0130005 66.84 0.569336L6.83997 22.7913L5.76001 23.269C4.03784 24.1648 2.5813 25.5877 1.56104 27.3706C0.540894 29.1536 -0.000609836 31.2228 5.15395e-07 33.3356V88.8904L0.0699468 90.1904C0.356568 92.8931 1.52588 95.385 3.35632 97.1934C5.18665 99.0018 7.55066 100.001 10 100.001H30V177.778L30.05 179.445C30.4285 185.035 32.6947 190.26 36.3945 194.072C40.0944 197.884 44.9542 200.002 50 200H150L151.5 199.944C156.531 199.524 161.234 197.006 164.665 192.895C168.096 188.784 170.002 183.384 170 177.778V100.001H190L191.17 99.9236C193.603 99.6052 195.845 98.3059 197.473 96.2722C199.1 94.2385 200 91.6118 200 88.8904V33.3356L199.93 32.0467C199.71 29.9485 198.956 27.9634 197.757 26.3242C196.558 24.6849 194.964 23.4594 193.16 22.7913L133.16 0.569336L132.03 0.236008L130.9 0.0471192L129.78 0.00267793ZM65.254 123.192C68.7527 124.045 72.3794 124.472 76.134 124.472C80.7847 124.472 84.646 123.789 87.718 122.424C90.79 121.016 93.094 119.181 94.63 116.92C96.2087 114.616 96.998 112.098 96.998 109.368C96.998 107.021 96.55 105.058 95.6541 103.48C94.7581 101.901 93.5634 100.621 92.0701 99.6398C90.6194 98.6584 89.0194 97.8691 87.27 97.2718C85.5208 96.6744 83.75 96.2051 81.958 95.8638C80.2087 95.5224 78.5874 95.2024 77.094 94.9037C75.6433 94.6051 74.47 94.2424 73.574 93.8158C72.678 93.3464 72.23 92.7278 72.23 91.9597C72.23 91.4478 72.4006 90.9784 72.7421 90.5518C73.126 90.1251 73.7448 89.7838 74.598 89.5278C75.4514 89.2718 76.6034 89.1438 78.0541 89.1438C80.0167 89.1438 82.022 89.4211 84.0701 89.9758C86.1606 90.5304 88.3153 91.3624 90.5341 92.4718L95.078 81.5278C92.7313 80.2051 90.0861 79.2238 87.1421 78.5838C84.198 77.9438 81.2113 77.6237 78.182 77.6237C73.574 77.6237 69.7126 78.3064 66.598 79.6718C63.526 81.0371 61.2007 82.8717 59.6221 85.1758C58.0861 87.4371 57.318 89.9544 57.318 92.7278C57.318 95.1171 57.766 97.1224 58.662 98.7438C59.558 100.322 60.7313 101.602 62.182 102.584C63.6754 103.565 65.2968 104.354 67.046 104.952C68.838 105.549 70.6086 106.04 72.358 106.424C74.1074 106.765 75.7074 107.106 77.1581 107.448C78.6514 107.746 79.8461 108.13 80.7421 108.6C81.6381 109.069 82.0861 109.709 82.0861 110.52C82.0861 111.032 81.894 111.48 81.51 111.864C81.126 112.205 80.5073 112.482 79.6541 112.696C78.8434 112.866 77.7126 112.952 76.2621 112.952C73.7874 112.952 71.2274 112.589 68.582 111.864C65.9794 111.096 63.6113 110.093 61.478 108.856L56.614 119.864C58.8754 121.229 61.7554 122.338 65.254 123.192ZM114.677 122.808C117.749 123.917 121.077 124.472 124.661 124.472C129.055 124.472 132.938 123.704 136.308 122.168C139.722 120.589 142.538 118.37 144.757 115.512L135.221 107C133.898 108.664 132.426 109.965 130.805 110.904C129.226 111.8 127.434 112.248 125.429 112.248C123.85 112.248 122.421 111.992 121.141 111.48C119.86 110.968 118.751 110.221 117.812 109.24C116.917 108.258 116.213 107.085 115.701 105.72C115.188 104.312 114.932 102.754 114.932 101.048C114.932 99.3411 115.188 97.8051 115.701 96.4398C116.213 95.0318 116.917 93.8371 117.812 92.8558C118.751 91.8744 119.86 91.1277 121.141 90.6158C122.421 90.1038 123.85 89.8477 125.429 89.8477C127.434 89.8477 129.226 90.3171 130.805 91.2558C132.426 92.1517 133.898 93.4317 135.221 95.0957L144.757 86.5838C142.538 83.6824 139.722 81.4637 136.308 79.9277C132.938 78.3918 129.055 77.6237 124.661 77.6237C121.077 77.6237 117.749 78.1998 114.677 79.3517C111.647 80.4611 109.002 82.0611 106.74 84.1517C104.522 86.2424 102.794 88.7171 101.557 91.5757C100.319 94.4344 99.7006 97.5918 99.7006 101.048C99.7006 104.504 100.319 107.661 101.557 110.52C102.794 113.378 104.522 115.853 106.74 117.944C109.002 120.034 111.647 121.656 114.677 122.808Z" fill="white"/>
</svg>
