<svg width="250" height="250" viewBox="0 0 250 250" fill="none" xmlns="http://www.w3.org/2000/svg">
<path fill-rule="evenodd" clip-rule="evenodd" d="M19 0C8.50659 0 0 8.50658 0 19V231C0 241.493 8.50659 250 19 250H231C241.493 250 250 241.493 250 231V19C250 8.50659 241.493 0 231 0H19ZM153.83 25.0805L154.78 25.0027L155.9 25.0471L157.03 25.236L158.16 25.5693L218.16 47.7913C219.964 48.4594 221.558 49.6849 222.757 51.3242C223.956 52.9634 224.71 54.9485 224.93 57.0467L225 58.3356V113.89C225 116.612 224.1 119.238 222.473 121.272C220.845 123.306 218.603 124.605 216.17 124.924L215 125.001H195V202.778C195.002 208.384 193.096 213.784 189.665 217.895C186.234 222.006 181.532 224.524 176.5 224.944L175 225H75C69.9542 225.002 65.0944 222.884 61.3945 219.072C57.6947 215.26 55.4285 210.035 55.05 204.445L55 202.778V125.001H35C32.5507 125.001 30.1866 124.002 28.3563 122.193C26.5259 120.385 25.3566 117.893 25.0699 115.19L25 113.89V58.3356C24.9994 56.2228 25.5409 54.1536 26.561 52.3706C27.5813 50.5877 29.0378 49.1648 30.76 48.269L31.84 47.7913L91.84 25.5693C93.3434 25.013 94.9441 24.8616 96.5105 25.1275C98.0768 25.3934 99.5638 26.0691 100.849 27.0988C102.134 28.1286 103.181 29.483 103.903 31.0503C104.624 32.6176 105 34.3531 105 36.1136C104.977 41.88 106.972 47.4307 110.564 51.5929C114.156 55.7551 119.063 58.203 124.249 58.4194C129.436 58.6357 134.495 56.6036 138.357 52.7524C142.22 48.9012 144.584 43.5324 144.95 37.7803L145.04 35.1137L145.21 33.8581L145.58 32.3692L146.02 31.2248L146.52 30.2026L147.2 29.1693L147.89 28.2804C148.45 27.6804 149.02 27.1693 149.64 26.7249L150.6 26.136L151.63 25.6471L152.71 25.2916L153.83 25.0805ZM101.134 149.472C97.3796 149.472 93.7529 149.045 90.2543 148.192C86.7556 147.338 83.8756 146.229 81.6143 144.864L86.4783 133.856C88.6116 135.093 90.9796 136.096 93.5823 136.864C96.2277 137.589 98.7876 137.952 101.262 137.952C102.713 137.952 103.844 137.866 104.654 137.696C105.508 137.482 106.126 137.205 106.51 136.864C106.894 136.48 107.086 136.032 107.086 135.52C107.086 134.709 106.638 134.069 105.742 133.6C104.846 133.13 103.652 132.746 102.158 132.448C100.708 132.106 99.1077 131.765 97.3583 131.424C95.6089 131.04 93.8383 130.549 92.0463 129.952C90.297 129.354 88.6757 128.565 87.1823 127.584C85.7316 126.602 84.5582 125.322 83.6622 123.744C82.7662 122.122 82.3182 120.117 82.3182 117.728C82.3182 114.954 83.0863 112.437 84.6223 110.176C86.2009 107.872 88.5262 106.037 91.5983 104.672C94.7129 103.306 98.5742 102.624 103.182 102.624C106.212 102.624 109.198 102.944 112.142 103.584C115.086 104.224 117.732 105.205 120.078 106.528L115.534 117.472C113.316 116.362 111.161 115.53 109.07 114.976C107.022 114.421 105.017 114.144 103.054 114.144C101.604 114.144 100.452 114.272 99.5983 114.528C98.745 114.784 98.1262 115.125 97.7423 115.552C97.401 115.978 97.2302 116.448 97.2302 116.96C97.2302 117.728 97.6782 118.346 98.5742 118.816C99.4703 119.242 100.644 119.605 102.094 119.904C103.588 120.202 105.209 120.522 106.958 120.864C108.75 121.205 110.521 121.674 112.27 122.272C114.02 122.869 115.62 123.658 117.07 124.64C118.564 125.621 119.758 126.901 120.654 128.48C121.55 130.058 121.998 132.021 121.998 134.368C121.998 137.098 121.209 139.616 119.63 141.92C118.094 144.181 115.79 146.016 112.718 147.424C109.646 148.789 105.785 149.472 101.134 149.472ZM149.661 149.472C146.077 149.472 142.749 148.917 139.677 147.808C136.647 146.656 134.002 145.034 131.741 142.944C129.522 140.853 127.794 138.378 126.557 135.52C125.319 132.661 124.701 129.504 124.701 126.048C124.701 122.592 125.319 119.434 126.557 116.576C127.794 113.717 129.522 111.242 131.741 109.152C134.002 107.061 136.647 105.461 139.677 104.352C142.749 103.2 146.077 102.624 149.661 102.624C154.055 102.624 157.938 103.392 161.309 104.928C164.722 106.464 167.538 108.682 169.757 111.584L160.221 120.096C158.898 118.432 157.426 117.152 155.805 116.256C154.226 115.317 152.434 114.848 150.429 114.848C148.85 114.848 147.421 115.104 146.141 115.616C144.861 116.128 143.751 116.874 142.813 117.856C141.917 118.837 141.213 120.032 140.701 121.44C140.189 122.805 139.933 124.341 139.933 126.048C139.933 127.754 140.189 129.312 140.701 130.72C141.213 132.085 141.917 133.258 142.813 134.24C143.751 135.221 144.861 135.968 146.141 136.48C147.421 136.992 148.85 137.248 150.429 137.248C152.434 137.248 154.226 136.8 155.805 135.904C157.426 134.965 158.898 133.664 160.221 132L169.757 140.512C167.538 143.37 164.722 145.589 161.309 147.168C157.938 148.704 154.055 149.472 149.661 149.472Z" fill="#4C0D7F"/>
</svg>
